<?xml version="1.0" standalone="no"?>
<!DOCTYPE svg PUBLIC "-//W3C//DTD SVG 20010904//EN"
 "http://www.w3.org/TR/2001/REC-SVG-20010904/DTD/svg10.dtd">
<svg version="1.0" xmlns="http://www.w3.org/2000/svg"
 width="1080.000000pt" height="1080.000000pt" viewBox="0 0 1080.000000 1080.000000"
 preserveAspectRatio="xMidYMid meet">
<metadata>
Created by potrace 1.14, written by Peter Selinger 2001-2017
</metadata>
<g transform="translate(0.000000,1080.000000) scale(0.100000,-0.100000)"
fill="#000000" stroke="none">
<path d="M1865 10790 c-27 -4 -70 -11 -95 -15 -139 -21 -330 -72 -460 -125
-169 -67 -393 -199 -535 -314 -58 -47 -248 -235 -291 -287 -46 -57 -133 -176
-158 -219 -15 -25 -31 -52 -36 -60 -83 -133 -161 -315 -214 -505 -28 -99 -28
-98 -56 -265 -12 -74 -12 -7093 1 -7180 50 -351 197 -715 388 -960 l20 -25 18
21 c10 12 61 68 113 125 161 176 212 231 305 334 50 55 117 129 150 165 33 36
98 108 145 159 47 52 90 99 95 105 6 6 59 65 120 131 60 66 114 125 120 131 5
6 26 29 45 50 41 46 418 461 471 519 20 22 50 54 65 71 46 49 174 191 205 227
l28 32 -44 44 c-25 24 -42 47 -40 52 3 4 70 102 149 218 l144 210 -51 54 c-80
81 -80 80 -68 124 5 21 12 55 15 77 4 21 8 41 10 45 2 3 7 22 10 41 21 131
182 706 229 820 5 14 11 30 13 35 3 12 53 144 84 225 37 92 37 93 -12 117 -24
12 -83 44 -133 71 l-90 49 -95 -34 c-52 -20 -108 -41 -125 -48 -16 -7 -64 -25
-105 -39 -115 -41 -482 -176 -505 -186 -11 -5 -85 -32 -165 -60 -80 -29 -158
-58 -175 -65 -16 -7 -50 -20 -75 -28 -25 -8 -101 -36 -170 -62 -105 -39 -133
-46 -172 -41 -151 17 -222 156 -157 307 34 78 169 272 267 384 15 17 54 62 87
100 33 39 83 95 111 125 28 30 81 89 119 130 235 257 759 780 885 883 102 83
123 99 240 178 197 131 445 238 665 285 227 48 507 38 729 -27 67 -20 69 -20
86 -2 9 10 66 74 126 143 112 129 282 307 414 435 349 338 818 636 1260 801
36 13 74 29 85 34 109 52 571 175 775 206 19 3 46 7 59 9 13 2 45 7 70 11 25
3 56 7 69 9 13 2 53 7 90 10 37 4 83 8 102 11 94 11 245 17 440 17 190 0 281
-4 425 -17 182 -17 192 -19 299 -37 52 -9 61 -8 80 9 28 24 103 92 141 127 17
15 61 55 99 89 38 33 75 67 82 74 8 7 64 58 126 113 100 88 116 99 149 99 31
0 43 -6 61 -30 40 -55 33 -83 -44 -168 -29 -32 -91 -100 -138 -152 -47 -52
-106 -117 -131 -145 -194 -213 -182 -197 -176 -253 4 -26 8 -56 11 -68 2 -12
7 -57 11 -100 4 -43 9 -81 10 -84 2 -3 7 -57 11 -120 15 -213 9 -697 -10 -855
-2 -16 -7 -59 -11 -95 -10 -92 -13 -118 -19 -148 -3 -15 -7 -43 -10 -62 -28
-197 -108 -510 -191 -750 -73 -213 -201 -492 -309 -673 -25 -43 -46 -82 -46
-87 0 -5 -4 -10 -8 -12 -4 -1 -23 -28 -41 -58 -28 -45 -133 -197 -163 -235 -5
-5 -31 -39 -59 -75 -119 -151 -361 -404 -565 -590 -42 -38 -255 -222 -261
-225 -1 0 4 -19 12 -40 14 -41 42 -172 51 -237 53 -371 -35 -752 -256 -1118
-154 -255 -304 -424 -786 -890 -302 -291 -455 -432 -668 -615 -96 -82 -267
-209 -327 -243 -66 -37 -159 -63 -206 -57 -33 4 -113 43 -113 55 0 3 -8 15
-18 26 -22 24 -39 79 -37 124 2 30 76 236 462 1280 36 96 74 200 85 232 l19
56 -72 129 c-39 70 -73 130 -75 132 -1 1 -51 -16 -111 -39 -353 -138 -737
-253 -1113 -331 -169 -35 -150 -38 -221 31 -35 33 -65 60 -67 60 -5 0 -203
-131 -212 -140 -3 -3 -54 -38 -113 -78 -121 -83 -107 -83 -186 1 -24 26 -50
46 -57 45 -10 -2 -223 -188 -464 -404 -45 -41 -314 -280 -409 -364 -40 -36
-83 -74 -96 -85 -50 -45 -95 -85 -180 -160 -49 -44 -99 -89 -111 -100 -11 -11
-47 -43 -80 -72 -32 -28 -71 -62 -85 -75 -14 -12 -58 -52 -99 -88 -40 -36 -78
-70 -84 -75 -6 -6 -72 -64 -146 -130 -74 -66 -140 -124 -146 -130 -64 -59
-169 -152 -180 -158 -26 -15 -14 -32 70 -101 254 -207 564 -362 843 -421 10
-2 50 -10 88 -18 66 -15 93 -18 225 -33 67 -7 6868 -8 6925 0 22 2 74 8 115
11 41 4 77 8 80 10 3 2 25 6 50 10 206 31 505 145 715 275 162 100 377 284
501 430 265 313 434 706 482 1125 9 81 9 6939 0 7040 -4 44 -10 91 -13 105 -2
13 -7 42 -11 64 -3 22 -7 43 -9 46 -2 3 -6 21 -9 40 -8 53 -62 230 -97 317
-32 80 -120 255 -169 335 -104 169 -359 450 -500 551 -180 128 -339 218 -492
277 -164 64 -299 102 -448 126 -19 3 -46 8 -60 12 -35 9 -7054 11 -7115 2z"/>
<path d="M6755 7399 c-188 -30 -355 -196 -391 -389 -10 -58 -6 -146 10 -211
78 -303 429 -454 706 -303 141 77 237 233 245 401 16 313 -255 552 -570 502z"/>
<path d="M5436 6104 c-118 -28 -212 -91 -280 -189 -64 -91 -83 -140 -92 -243
-21 -217 119 -428 332 -501 82 -28 245 -24 323 8 153 62 269 197 302 351 14
66 6 199 -16 260 -50 141 -161 252 -301 300 -73 26 -191 31 -268 14z"/>
<path d="M2362 2762 c-22 -26 -57 -65 -77 -87 -21 -22 -70 -76 -109 -119 -39
-43 -84 -94 -101 -111 -16 -18 -50 -55 -74 -81 -24 -27 -83 -92 -130 -144
-147 -161 -186 -204 -196 -216 -22 -24 -171 -188 -195 -214 -54 -59 -196 -214
-210 -230 -21 -24 -161 -180 -180 -200 -8 -9 -35 -39 -60 -66 -25 -27 -89 -97
-142 -155 -54 -58 -107 -119 -120 -135 -12 -16 371 364 852 844 l873 873 -45
44 -45 44 -41 -47z"/>
<path d="M1827 1864 c-416 -416 -757 -759 -757 -762 0 -5 24 16 100 88 3 3 43
39 90 80 47 41 87 77 90 80 3 3 64 57 135 120 72 63 132 117 135 120 3 3 104
93 225 200 121 107 238 211 260 231 84 76 163 146 234 209 41 36 79 70 85 75
6 6 66 59 134 119 l123 109 -43 43 c-24 24 -45 44 -48 44 -3 0 -347 -340 -763
-756z"/>
</g>
</svg>
